<?xml version="1.0" encoding="utf-8"?>
<!-- Generator: Adobe Illustrator 24.0.3, SVG Export Plug-In . SVG Version: 6.00 Build 0)  -->
<!DOCTYPE svg PUBLIC "-//W3C//DTD SVG 1.1//EN" "http://www.w3.org/Graphics/SVG/1.1/DTD/svg11.dtd" [
	<!ENTITY ns_extend "http://ns.adobe.com/Extensibility/1.0/">
	<!ENTITY ns_ai "http://ns.adobe.com/AdobeIllustrator/10.0/">
	<!ENTITY ns_graphs "http://ns.adobe.com/Graphs/1.0/">
	<!ENTITY ns_vars "http://ns.adobe.com/Variables/1.0/">
	<!ENTITY ns_imrep "http://ns.adobe.com/ImageReplacement/1.0/">
	<!ENTITY ns_sfw "http://ns.adobe.com/SaveForWeb/1.0/">
	<!ENTITY ns_custom "http://ns.adobe.com/GenericCustomNamespace/1.0/">
	<!ENTITY ns_adobe_xpath "http://ns.adobe.com/XPath/1.0/">
]>
<svg version="1.1" id="Layer_1" xmlns:x="&ns_extend;" xmlns:i="&ns_ai;" xmlns:graph="&ns_graphs;"
	 xmlns="http://www.w3.org/2000/svg" xmlns:xlink="http://www.w3.org/1999/xlink" x="0px" y="0px" viewBox="0 0 356 298.1"
	 enable-background="new 0 0 356 298.1" xml:space="preserve">
<metadata>
	<sfw  xmlns="&ns_sfw;">
		<slices></slices>
		<sliceSourceBounds  bottomLeftOrigin="true" height="298.1" width="356" x="18.2" y="35"></sliceSourceBounds>
	</sfw>
</metadata>
<path fill-rule="evenodd" clip-rule="evenodd" fill="#E6E6E6" d="M246.2,0c0,0,22.8,25-7.1,54.3s-27.1-12.9-27.1-12.9
	S217.7,1.4,246.2,0L246.2,0z"/>
<path fill-rule="evenodd" clip-rule="evenodd" fill="#E6E6E6" d="M111.9,0c0,0-22.8,25,7.1,54.3s27.1-12.9,27.1-12.9
	S140.5,1.4,111.9,0L111.9,0z"/>
<path fill="#916F6F" stroke="#727272" d="M144.7,31.5c-1.4,0-2.8,0.3-4.1,1l-24,12.6c-4.2,2.2-5.8,7.4-3.6,11.6
	c0.7,1.4,1.8,2.5,3,3.2c-4.9,4.2-9.2,8.8-12.7,13.8c-4-11.5-30.9-15.8-61.6-9.7C10,70.5-1.7,85.7,0.8,98.1s18.2,17.2,49.9,10.9
	c18.7-3.8,34.6-10.6,44-18.1c-1.8,5.7-2.8,11.7-2.8,17.8c0,7.6,1.5,14.9,4.2,21.8c-13.4,15.7-21.4,35.4-21.4,56.7
	c0,51.6,46.7,93.5,104.2,93.5s104.2-41.9,104.2-93.5c0-21.3-8-41-21.4-56.7c2.7-6.9,4.2-14.2,4.2-21.8c0-5.5-0.7-10.8-2.2-15.9
	c9.6,6.7,24.3,12.7,41.4,16.2c31.7,6.4,47.4,1.5,49.9-10.9s-9.2-27.6-40.9-33.9c-29.1-5.8-54.8-2.2-60.8,8
	c-3.3-4.4-7.1-8.5-11.5-12.2c1.2-0.8,2.2-1.9,2.9-3.2c2.2-4.2,0.6-9.4-3.6-11.6l-24-12.6c-4.2-2.2-9.4-0.6-11.6,3.6
	c-0.9,1.6-1.1,3.4-0.9,5.1c-8.2-2.1-16.9-3.2-25.9-3.2c-9,0-17.7,1.1-25.9,3.2c0.2-1.7-0.1-3.5-0.9-5.1
	C150.7,33.2,147.8,31.6,144.7,31.5L144.7,31.5z"/>
<path fill="#FFAAAA" d="M134.8,186.8c-36.7,0-66.4,25-66.4,55.7s29.7,55.7,66.4,55.7c16.5,0,31.5-5,43.2-13.4
	c11.6,8.3,26.7,13.4,43.2,13.4c36.7,0,66.4-24.9,66.4-55.7s-29.8-55.7-66.4-55.7c-16.5,0-31.5,5.1-43.2,13.4
	C166.4,191.8,151.3,186.8,134.8,186.8z"/>
<path fill="#FFFFFF" stroke="#727272" d="M156.9,88.1c-14.6,0-26.4,11.8-26.4,26.4c0,14.6,11.8,26.4,26.4,26.4
	c9.5,0,17.8-5,22.5-12.6c4.7,7.5,13,12.6,22.5,12.6c14.6,0,26.4-11.9,26.4-26.4s-11.8-26.4-26.4-26.4c-9.5,0-17.8,5-22.5,12.6
	C174.7,93.1,166.4,88.1,156.9,88.1L156.9,88.1z"/>
<path fill="#916F6F" stroke="#727272" stroke-width="0.6021" d="M150.6,224.4c-8.8,0-15.9,7.1-15.9,15.9s7.1,15.9,15.9,15.9
	s15.9-7.1,15.9-15.9S159.4,224.4,150.6,224.4z M208.1,224.4c-8.8,0-15.9,7.1-15.9,15.9s7.1,15.9,15.9,15.9S224,249,224,240.3
	S216.9,224.4,208.1,224.4z"/>
<path fill="#2B1100" stroke="#727272" d="M163.3,108.2c0,5.3-4.6,9.6-10.4,9.6s-10.4-4.3-10.4-9.6s4.6-9.6,10.4-9.6
	S163.3,102.8,163.3,108.2z"/>
<path fill="#2B1100" stroke="#727272" d="M214.2,123.9c0,5.3-4.6,9.6-10.4,9.6s-10.4-4.3-10.4-9.6s4.6-9.6,10.4-9.6
	S214.2,118.6,214.2,123.9z"/>
</svg>
